<!-- Generated by IcoMoon.io -->
<svg version="1.1" xmlns="http://www.w3.org/2000/svg" width="64" height="64" viewBox="0 0 64 64">
<title>icon-manage</title>
<path d="M3.399 9.616v13.608c0 1.89 1.509 3.392 3.392 3.392h13.608c0.005 0 0.011 0 0.017 0 1.864 0 3.375-1.511 3.375-3.375 0-0.006 0-0.012-0-0.018v0.001-13.608c0-0.005 0-0.011 0-0.017 0-1.864-1.511-3.375-3.375-3.375-0.006 0-0.012 0-0.018 0h-13.607c-0.005 0-0.011-0-0.017-0-1.864 0-3.375 1.511-3.375 3.375 0 0.006 0 0.012 0 0.018v-0.001zM0 9.616c-0-3.749 3.014-6.79 6.79-6.79h13.608c3.749 0 6.79 3.014 6.79 6.79v13.608c0 0.005 0 0.011 0 0.017 0 3.741-3.033 6.773-6.773 6.773-0.006 0-0.012 0-0.018 0h-13.607c-0.005 0-0.011 0-0.017 0-3.741 0-6.773-3.033-6.773-6.773 0-0.006 0-0.012 0-0.018v0.001-13.608zM33.157 21.222c-1.233-1.227-1.997-2.925-1.997-4.802s0.763-3.575 1.996-4.802l9.622-9.622c2.651-2.651 6.933-2.671 9.604 0l9.621 9.621c2.651 2.651 2.671 6.933 0 9.605l-9.621 9.621c-2.651 2.651-6.933 2.671-9.604 0l-9.621-9.621zM45.181 28.44c0.612 0.619 1.461 1.002 2.399 1.002s1.787-0.383 2.399-1.001l9.618-9.622c0.619-0.612 1.002-1.461 1.002-2.399s-0.383-1.787-1.001-2.399l-9.618-9.618c-0.612-0.619-1.461-1.002-2.399-1.002s-1.787 0.383-2.399 1.001l-9.618 9.618c-0.619 0.612-1.002 1.461-1.002 2.399s0.383 1.787 1.001 2.399l9.618 9.618zM33.986 43.602c0-3.749 3.015-6.79 6.79-6.79h13.608c3.749 0 6.79 3.015 6.79 6.79v13.608c0 0.005 0 0.011 0 0.017 0 3.741-3.033 6.773-6.773 6.773-0.006 0-0.012 0-0.018 0h-13.607c-0.005 0-0.011 0-0.017 0-3.741 0-6.773-3.033-6.773-6.773 0-0.006 0-0.012 0-0.018v0.001-13.608zM37.385 43.602v13.608c0 1.89 1.509 3.392 3.392 3.392h13.608c0.005 0 0.011 0 0.017 0 1.864 0 3.375-1.511 3.375-3.375 0-0.006 0-0.012-0-0.018v0.001-13.608c0-0.005 0-0.011 0-0.017 0-1.864-1.511-3.375-3.375-3.375-0.006 0-0.012 0-0.018 0h-13.607c-0.005 0-0.011-0-0.017-0-1.864 0-3.375 1.511-3.375 3.375 0 0.006 0 0.012 0 0.018v-0.001zM0 43.602c0-3.749 3.014-6.79 6.79-6.79h13.608c3.749 0 6.79 3.015 6.79 6.79v13.608c0 0.005 0 0.011 0 0.017 0 3.741-3.033 6.773-6.773 6.773-0.006 0-0.012 0-0.018 0h-13.607c-0.005 0-0.011 0-0.017 0-3.741 0-6.773-3.033-6.773-6.773 0-0.006 0-0.012 0-0.018v0.001-13.608zM3.399 43.602v13.608c0 1.89 1.509 3.392 3.392 3.392h13.608c0.005 0 0.011 0 0.017 0 1.864 0 3.375-1.511 3.375-3.375 0-0.006 0-0.012-0-0.018v0.001-13.608c0-0.005 0-0.011 0-0.017 0-1.864-1.511-3.375-3.375-3.375-0.006 0-0.012 0-0.018 0h-13.607c-0.005 0-0.011-0-0.017-0-1.864 0-3.375 1.511-3.375 3.375 0 0.006 0 0.012 0 0.018v-0.001z"></path>
</svg>
