<!-- Generated by IcoMoon.io -->
<svg version="1.1" xmlns="http://www.w3.org/2000/svg" width="32" height="32" viewBox="0 0 32 32">
<title>icon-group</title>
<path d="M19.2 9.6v-8c0-0.88-0.72-1.6-1.6-1.6h-16c-0.88 0-1.6 0.72-1.6 1.6v28.8c0 0.88 0.72 1.6 1.6 1.6h28.8c0.88 0 1.6-0.72 1.6-1.6v-19.2c0-0.88-0.72-1.6-1.6-1.6h-11.2zM12.048 25.6h-4.896c-0.416 0-0.752-0.336-0.752-0.752v-1.696c0-0.416 0.336-0.752 0.752-0.752h4.896c0.416 0 0.752 0.336 0.752 0.752v1.696c0 0.416-0.336 0.752-0.752 0.752zM12.048 17.6h-4.896c-0.416 0-0.752-0.336-0.752-0.752v-1.68c0-0.416 0.336-0.752 0.752-0.752h4.88c0.416 0 0.752 0.336 0.752 0.752v1.68c0.016 0.416-0.32 0.752-0.736 0.752zM12.032 9.6h-4.864c-0.416 0-0.768-0.336-0.768-0.768v-1.664c0-0.416 0.336-0.768 0.768-0.768h4.88c0.416 0 0.768 0.336 0.768 0.768v1.68c-0.016 0.416-0.352 0.752-0.784 0.752zM24.848 25.6h-1.68c-0.416 0-0.752-0.336-0.752-0.752v-1.68c0-0.416 0.336-0.752 0.752-0.752h1.68c0.416 0 0.752 0.336 0.752 0.752v1.68c0 0.416-0.336 0.752-0.752 0.752zM24.832 19.2h-1.68c-0.416 0-0.768-0.336-0.768-0.768v-1.68c0-0.416 0.336-0.752 0.752-0.752h1.68c0.416 0 0.768 0.336 0.768 0.768v1.68c0.016 0.416-0.32 0.752-0.752 0.752z"></path>
</svg>
