<!-- Generated by IcoMoon.io -->
<svg version="1.1" xmlns="http://www.w3.org/2000/svg" width="27" height="32" viewBox="0 0 27 32">
<title>icon-me</title>
<path d="M27.438 30.041c0 0.692-0.555 1.253-1.24 1.253s-1.24-0.561-1.24-1.253l-0.011-0.117c0-0.050 0.009-0.097 0.014-0.146-0.774-5.498-5.439-9.538-11.12-9.601-0.046 0.001-0.089 0.007-0.135 0.007s-0.089-0.006-0.134-0.007c-5.616 0.063-10.237 4.013-11.089 9.416 0.028 0.106 0.049 0.216 0.049 0.331l0.012 0.118c0 0.703-0.564 1.272-1.26 1.272s-1.26-0.57-1.26-1.272l-0.001-0.012h-0.024c0.003-0.037 0.011-0.072 0.015-0.109 0-0.105 0.016-0.204 0.040-0.302 0.645-5.068 4.007-9.166 8.583-10.931-2.664-1.724-4.401-4.771-4.401-8.253 0-5.384 4.141-9.749 9.471-9.749s9.47 4.365 9.47 9.749c0 3.48-1.735 6.526-4.398 8.251 4.544 1.751 7.89 5.802 8.572 10.819 0.047 0.132 0.077 0.271 0.077 0.419l0.010 0.117zM20.999 10.438c0-4.071-3.266-7.371-7.295-7.371s-7.295 3.301-7.295 7.371c0 4.071 3.266 7.371 7.295 7.371 4.028 0 7.295-3.3 7.295-7.371z"></path>
</svg>
