<!-- Generated by IcoMoon.io -->
<svg version="1.1" xmlns="http://www.w3.org/2000/svg" width="32" height="32" viewBox="0 0 32 32">
<title>icon-dashboard</title>
<path d="M16.037 0.727c-0.662 0-1.367 0.266-1.853 0.798l-13.851 13.876c-0.706 0.709-0.22 1.906 0.794 1.906h0.529c0.926 0 1.632 0.754 1.632 1.64v10.108c0 1.241 0.971 2.217 2.206 2.217h6.043c1.235 0 2.205-0.975 2.205-2.217v-6.118c0-0.754 0.573-1.33 1.323-1.33h2.029c0.75 0 1.323 0.576 1.323 1.33v6.118c0 1.241 0.97 2.217 2.205 2.217h5.911c1.235 0 2.206-0.975 2.206-2.217v-10.152c0-0.931 0.75-1.64 1.632-1.64h0.529c0.97 0 1.456-1.197 0.794-1.906l-13.806-13.876c-0.485-0.488-1.191-0.754-1.853-0.754z"></path>
</svg>
