<!-- Generated by IcoMoon.io -->
<svg version="1.1" xmlns="http://www.w3.org/2000/svg" width="32" height="32" viewBox="0 0 32 32">
<title>icon-xitong</title>
<path d="M0.375 18.779c0.126 0.874 0.675 1.484 1.367 1.491l0.137 0.003c2.291 0.028 4.142 1.863 4.11 4.141-0.011 0.738-0.368 1.536-0.368 1.536-0.426 0.731-0.162 1.741 0.523 2.218h0.069l4.001 2.201h0.069c0.206 0.070 0.483 0.139 0.761 0.143 0.556 0.007 1.115-0.188 1.465-0.585 0.491-0.463 2.038-1.717 3.287-1.699s2.76 1.309 3.236 1.853c0.339 0.474 0.963 0.683 1.519 0.69 0.278 0.003 0.556-0.059 0.765-0.125h0.069l4.196-2.159h0.069c0.631-0.529 0.924-1.529 0.588-2.271 0 0-0.336-0.808-0.325-1.546 0.029-2.211 1.93-4.064 4.221-4.033h0.069c0.624 0.007 1.187-0.589 1.407-1.456 0-0.066 0.372-1.738 0.39-3.012 0.018-1.341-0.307-3.019-0.303-3.085-0.126-0.874-0.675-1.484-1.367-1.491l-0.137-0.003c-2.291-0.028-4.142-1.863-4.11-4.141 0.011-0.738 0.368-1.536 0.368-1.536 0.426-0.731 0.162-1.675-0.527-2.152h-0.069l-3.857-2.194h-0.069c-0.206-0.136-0.483-0.139-0.761-0.143-0.556-0.007-1.115 0.188-1.537 0.585-0.491 0.463-2.107 1.849-3.359 1.832-1.321-0.017-2.829-1.445-3.305-1.985-0.343-0.407-0.895-0.616-1.519-0.623-0.278-0.003-0.556 0.059-0.765 0.125h-0.069l-4.059 2.159h-0.069c-0.7 0.46-0.992 1.463-0.657 2.204 0 0 0.336 0.808 0.325 1.546-0.029 2.211-1.93 4.064-4.221 4.033l-0.137-0.003c-0.624-0.007-1.187 0.522-1.407 1.456 0 0.066-0.372 1.738-0.39 3.079 0.051 1.205 0.375 2.883 0.375 2.95zM16.11 10.606c3.056 0.038 5.52 2.483 5.481 5.433s-2.572 5.328-5.628 5.29c-3.056-0.038-5.52-2.483-5.481-5.433 0.043-2.95 2.576-5.328 5.628-5.29z"></path>
</svg>
