<!-- Generated by IcoMoon.io -->
<svg version="1.1" xmlns="http://www.w3.org/2000/svg" width="64" height="64" viewBox="0 0 64 64">
<title>icon-shezhi</title>
<path d="M63.328 25.761c-0.375-1.975-1.582-3.25-3.077-3.25h-0.325c-4.324-0.003-7.828-3.507-7.831-7.831v-0c0-1.403 0.677-2.976 0.681-2.985 0.212-0.479 0.336-1.039 0.336-1.627 0-1.373-0.674-2.588-1.709-3.334l-0.012-0.008-0.096-0.069-7.941-4.407-0.101-0.046c-0.507-0.212-1.096-0.335-1.714-0.335-1.248 0-2.378 0.501-3.201 1.313l0.001-0.001c-0.869 0.901-3.877 3.465-6.181 3.465-2.327 0-5.353-2.619-6.226-3.534-0.819-0.836-1.96-1.355-3.221-1.355-0.607 0-1.185 0.12-1.714 0.337l0.030-0.011-0.105 0.050-8.215 4.512-0.101 0.069c-1.052 0.752-1.729 1.97-1.729 3.346 0 0.587 0.123 1.145 0.345 1.65l-0.010-0.026c0.009 0.018 0.681 1.577 0.681 2.99 0 4.32-3.511 7.831-7.831 7.831h-0.325c-1.495 0-2.697 1.275-3.072 3.25-0.027 0.146-0.667 3.584-0.667 6.272s0.645 6.121 0.672 6.267c0.375 1.975 1.582 3.25 3.077 3.25h0.329c4.32 0 7.831 3.511 7.831 7.831 0 1.403-0.677 2.976-0.681 2.985-0.213 0.48-0.337 1.040-0.337 1.63 0 1.371 0.672 2.586 1.706 3.331l0.012 0.008 0.091 0.064 7.79 4.357 0.101 0.046c0.505 0.215 1.093 0.34 1.709 0.34 1.266 0 2.409-0.526 3.222-1.371l0.001-0.001c1.106-1.202 4.105-3.68 6.322-3.68 2.4 0 5.477 2.784 6.363 3.753 0.82 0.865 1.977 1.403 3.261 1.403 0.006 0 0.012 0 0.018-0h-0.001c0.005 0 0.011 0 0.016 0 0.588 0 1.148-0.121 1.657-0.34l-0.027 0.010 0.101-0.046 8.073-4.462 0.096-0.069c1.048-0.754 1.723-1.97 1.723-3.343 0-0.586-0.123-1.143-0.344-1.647l0.010 0.026c-0.009-0.018-0.686-1.6-0.686-2.994 0-4.32 3.511-7.831 7.831-7.831h0.315c1.499 0 2.706-1.275 3.081-3.25 0.005-0.037 0.667-3.52 0.667-6.272-0.005-2.697-0.645-6.121-0.672-6.263zM22.295 57.619l-6.811-3.808c0.302-0.773 0.91-2.569 0.91-4.434 0-0.003 0-0.006 0-0.009 0-6.471-4.989-11.777-11.331-12.281l-0.043-0.003c-0.281-1.488-0.468-3.23-0.52-5.006l-0.001-0.050c0-1.81 0.37-4.146 0.526-5.061 6.385-0.509 11.374-5.816 11.374-12.288 0-0.002 0-0.003 0-0.005v0c0-1.856-0.613-3.648-0.905-4.421l7.25-3.982c0.261 0.265 1.307 1.303 2.752 2.331 2.35 1.682 4.599 2.533 6.67 2.533 2.053 0 4.279-0.837 6.619-2.487 1.435-1.006 2.473-2.030 2.734-2.29l6.99 3.881c-0.534 1.308-0.864 2.824-0.909 4.411l-0 0.018c0 0.003 0 0.006 0 0.009 0 6.473 4.992 11.78 11.335 12.281l0.043 0.003c0.155 0.914 0.526 3.255 0.526 5.061 0 1.815-0.37 4.146-0.526 5.061-6.387 0.507-11.378 5.815-11.378 12.288 0 0.002 0 0.003 0 0.005v-0c0 1.861 0.613 3.653 0.905 4.425l-7.072 3.909c-0.839-0.876-1.74-1.675-2.704-2.396l-0.057-0.041c-2.405-1.787-4.704-2.688-6.843-2.688-2.117 0-4.402 0.887-6.789 2.642-1.013 0.756-1.908 1.54-2.739 2.387l-0.004 0.004z"></path>
<path d="M45.714 32.271c0-7.566-6.149-13.714-13.714-13.714s-13.714 6.149-13.714 13.714 6.149 13.714 13.714 13.714c7.561 0 13.714-6.149 13.714-13.714zM31.995 23.128c5.042 0 9.143 4.101 9.143 9.143s-4.101 9.143-9.143 9.143-9.143-4.101-9.143-9.143c0.005-5.038 4.101-9.143 9.143-9.143z"></path>
</svg>
