<!-- Generated by IcoMoon.io -->
<svg version="1.1" xmlns="http://www.w3.org/2000/svg" width="34" height="32" viewBox="0 0 34 32">
<title>icon-monitor</title>
<path d="M14.93 0h4.463c0.68 0 1.231 0.551 1.231 1.231v22.711c0 0.68-0.551 1.231-1.231 1.231h-4.463c-0.68 0-1.231-0.551-1.231-1.231v-22.711c0-0.68 0.551-1.231 1.231-1.231zM5.705 11.661h4.46c0.68 0 1.231 0.551 1.231 1.231v11.050c0 0.68-0.551 1.231-1.231 1.231h-4.46c-0.68 0-1.231-0.551-1.231-1.231v-11.050c0-0.68 0.551-1.231 1.231-1.231zM24.159 7.148h4.463c0.68 0 1.231 0.551 1.231 1.231v15.566c0 0.68-0.551 1.231-1.231 1.231h-4.463c-0.68 0-1.231-0.551-1.231-1.231v-15.566c0-0.68 0.551-1.231 1.231-1.231zM1.234 27.557h32c0.68 0 1.231 0.551 1.231 1.231v1.982c0 0.68-0.551 1.231-1.231 1.231h-32c-0.68 0-1.231-0.551-1.231-1.231v-1.982c0-0.68 0.551-1.231 1.231-1.231z"></path>
</svg>
