<!-- Generated by IcoMoon.io -->
<svg version="1.1" xmlns="http://www.w3.org/2000/svg" width="32" height="32" viewBox="0 0 32 32">
<title>icon-dangan</title>
<path d="M9.159 15.329h-7.847c-1.005-1.683-1.498-3.718-1.248-5.887 0.495-4.288 3.949-7.699 8.163-8.072 3.127-0.277 5.959 1.074 7.773 3.315 1.638-2.024 4.106-3.321 6.871-3.351 4.804-0.051 8.876 3.851 9.117 8.749 0.1 2.022-0.445 3.904-1.437 5.465h-11.093c-0.276 0-0.521 0.178-0.612 0.443l-0.9 2.616-6.99-8.563c-0.389-0.476-1.148-0.196-1.148 0.424v4.197c0 0.366-0.29 0.662-0.649 0.662zM17.918 21.697l-6.151-7.534v2.503c0 0.366-0.291 0.663-0.649 0.663h-8.196c0.053 0.049 0.103 0.1 0.157 0.148l12.921 13.189 12.852-13.119h-8.005c-0.276 0-0.521 0.178-0.612 0.443l-1.205 3.501c-0.167 0.485-0.788 0.6-1.111 0.204v0z"></path>
</svg>
