<!-- Generated by IcoMoon.io -->
<svg version="1.1" xmlns="http://www.w3.org/2000/svg" width="30" height="32" viewBox="0 0 30 32">
<title>icon-logout</title>
<path d="M14.765 31.407c-1.992 0-3.927-0.375-5.747-1.118-1.759-0.715-3.337-1.739-4.693-3.045s-2.42-2.826-3.164-4.519c-0.77-1.752-1.161-3.614-1.161-5.533 0-2.297 0.585-4.577 1.69-6.597 1.069-1.952 2.621-3.665 4.491-4.955 0.519-0.358 1.241-0.242 1.612 0.257s0.253 1.192-0.267 1.549c-1.58 1.093-2.891 2.538-3.792 4.185-0.946 1.727-1.425 3.598-1.425 5.561 0 3.204 1.296 6.216 3.649 8.48 2.352 2.266 5.48 3.514 8.806 3.514s6.454-1.248 8.808-3.514c2.353-2.264 3.648-5.277 3.648-8.48 0-1.961-0.478-3.835-1.425-5.561-0.901-1.646-2.213-3.092-3.793-4.183-0.518-0.356-0.639-1.050-0.267-1.549s1.093-0.616 1.611-0.257c1.871 1.29 3.425 3.003 4.493 4.955 1.106 2.020 1.691 4.3 1.691 6.597 0 1.919-0.391 3.781-1.162 5.535-0.743 1.692-1.809 3.214-3.164 4.519s-2.933 2.329-4.693 3.047c-1.821 0.739-3.755 1.113-5.748 1.113zM15.112 15.982c-0.638 0-1.155-0.496-1.155-1.111v-13.167c0-0.613 0.517-1.112 1.155-1.112s1.156 0.499 1.156 1.112v13.167c0 0.615-0.518 1.111-1.156 1.111z"></path>
</svg>
