<!-- Generated by IcoMoon.io -->
<svg version="1.1" xmlns="http://www.w3.org/2000/svg" width="32" height="32" viewBox="0 0 32 32">
<title>icon-yichang</title>
<path d="M3.996 30.438c-3.561 0-5.016-2.577-3.235-5.724l11.753-20.789c1.781-3.15 4.694-3.15 6.474 0l11.753 20.789c1.781 3.15 0.322 5.724-3.235 5.724h-23.51zM17.252 23.461c0-0.186-0.056-0.369-0.168-0.512-0.112-0.14-0.256-0.211-0.403-0.211h-1.97c-0.147 0-0.291 0.072-0.403 0.211s-0.168 0.326-0.168 0.512v1.203c0 0.186 0.056 0.369 0.168 0.512 0.109 0.14 0.256 0.211 0.403 0.211h1.97c0.144 0 0.291-0.072 0.403-0.211 0.109-0.14 0.168-0.326 0.168-0.512v-1.203zM17.084 20.716c0.112-0.093 0.168-0.218 0.168-0.344 0-1.894-0.003-6.357-0.003-9.912 0-0.122-0.056-0.247-0.168-0.34-0.109-0.093-0.256-0.143-0.403-0.143h-1.966c-0.144 0-0.291 0.047-0.403 0.143-0.109 0.093-0.165 0.218-0.165 0.34 0 3.579 0.007 8.036 0.011 9.908 0 0.125 0.056 0.247 0.168 0.34 0.109 0.093 0.256 0.14 0.4 0.14l1.959 0.007c0.144 0 0.291-0.047 0.403-0.14z"></path>
</svg>
