<!-- Generated by IcoMoon.io -->
<svg version="1.1" xmlns="http://www.w3.org/2000/svg" width="32" height="32" viewBox="0 0 32 32">
<title>icon-caiji</title>
<path d="M25.379 29.303c-3.531 0-6.621-2.723-6.621-6.285 0-3.352 2.869-6.285 6.621-6.285 3.531 0 6.621 2.723 6.621 6.285s-2.869 6.285-6.621 6.285zM24.276 15.267c-0.441-1.047-1.103-2.095-1.986-2.933 0.883-1.257 1.545-2.514 1.545-4.19 2.648 1.885 4.414 4.609 5.076 7.751-1.103-0.419-2.207-0.838-3.531-0.838-0.221 0.21-0.662 0.21-1.103 0.21zM15.669 13.8c-3.531 0-6.621-2.723-6.621-6.285 0-3.352 2.869-6.285 6.621-6.285 3.531 0 6.621 2.723 6.621 6.285s-3.090 6.285-6.621 6.285zM7.724 15.267h-1.103c-1.324 0-2.428 0.21-3.531 0.838 0.441-2.933 2.207-5.656 4.414-7.542 0.221 1.466 0.883 2.933 1.986 4.19-0.883 0.838-1.324 1.676-1.766 2.514zM13.241 23.227c0 3.352-2.869 6.285-6.621 6.285-3.531 0-6.621-2.723-6.621-6.285 0-3.352 2.869-6.285 6.621-6.285s6.621 2.723 6.621 6.285zM14.345 26.37c0.441 0.209 1.103 0.209 1.766 0.209s1.324 0 1.986-0.209c0.662 1.466 1.766 2.723 3.090 3.561-1.766 0.419-3.31 0.838-5.076 0.838s-3.31-0.419-4.855-0.838c1.324-0.838 2.428-2.095 3.090-3.561z"></path>
</svg>
