<!-- Generated by IcoMoon.io -->
<svg version="1.1" xmlns="http://www.w3.org/2000/svg" width="53" height="64" viewBox="0 0 53 64">
<title>icon-tixing</title>
<path d="M48.607 37.139v-11.551c0-10.089-6.735-18.716-16.251-20.909-0.732-2.778-3.221-4.679-6.003-4.679-2.928 0-5.417 2.193-6.003 4.971-8.931 2.632-15.226 11.113-15.226 20.617v10.82c-3.174 1.992-5.107 5.468-5.124 9.212v0.146c0 1.462 0.293 2.924 0.878 4.24l0.146 0.146c0.439 1.023 1.318 1.755 2.342 2.047 0.293 0.146 0.732 0.146 1.318 0.146h43.482c0.293 0 0.586 0 0.878-0.146 1.318-0.146 2.343-1.023 2.782-2.047 0.586-1.316 0.878-2.924 0.878-4.387v-0.146c0-3.363-1.464-6.434-4.099-8.481zM31.331 55.709h-11.566c0 3.655 2.928 6.58 6.588 6.58s6.588-2.924 6.588-6.58h-1.61z"></path>
</svg>
